<svg width="25" height="26" viewBox="0 0 25 26" fill="none" xmlns="http://www.w3.org/2000/svg">
<path d="M17 11C17 11.5933 16.8241 12.1734 16.4944 12.6667C16.1648 13.1601 15.6962 13.5446 15.1481 13.7716C14.5999 13.9987 13.9967 14.0581 13.4147 13.9424C12.8328 13.8266 12.2982 13.5409 11.8787 13.1213C11.4591 12.7018 11.1734 12.1672 11.0576 11.5853C10.9419 11.0033 11.0013 10.4001 11.2284 9.85195C11.4554 9.30377 11.8399 8.83524 12.3333 8.50559C12.8266 8.17595 13.4067 8 14 8C14.7956 8 15.5587 8.31607 16.1213 8.87868C16.6839 9.44129 17 10.2044 17 11ZM25 2V24C25 24.5304 24.7893 25.0391 24.4142 25.4142C24.0391 25.7893 23.5304 26 23 26H5C4.46957 26 3.96086 25.7893 3.58579 25.4142C3.21071 25.0391 3 24.5304 3 24V21H1C0.734784 21 0.48043 20.8946 0.292893 20.7071C0.105357 20.5196 0 20.2652 0 20C0 19.7348 0.105357 19.4804 0.292893 19.2929C0.48043 19.1054 0.734784 19 1 19H3V14H1C0.734784 14 0.48043 13.8946 0.292893 13.7071C0.105357 13.5196 0 13.2652 0 13C0 12.7348 0.105357 12.4804 0.292893 12.2929C0.48043 12.1054 0.734784 12 1 12H3V7H1C0.734784 7 0.48043 6.89464 0.292893 6.70711C0.105357 6.51957 0 6.26522 0 6C0 5.73478 0.105357 5.48043 0.292893 5.29289C0.48043 5.10536 0.734784 5 1 5H3V2C3 1.46957 3.21071 0.960859 3.58579 0.585786C3.96086 0.210714 4.46957 0 5 0H23C23.5304 0 24.0391 0.210714 24.4142 0.585786C24.7893 0.960859 25 1.46957 25 2ZM20.8 17.4C19.9145 16.2128 18.7337 15.2781 17.375 14.6887C18.1196 14.0089 18.6413 13.1199 18.8716 12.1382C19.1019 11.1566 19.03 10.1283 18.6654 9.18828C18.3009 8.24823 17.6606 7.44037 16.8287 6.87072C15.9967 6.30106 15.012 5.99623 14.0037 5.99623C12.9955 5.99623 12.0108 6.30106 11.1788 6.87072C10.3469 7.44037 9.70665 8.24823 9.34207 9.18828C8.97749 10.1283 8.90563 11.1566 9.13592 12.1382C9.36621 13.1199 9.88789 14.0089 10.6325 14.6887C9.27105 15.277 8.08755 16.2118 7.2 17.4C7.12121 17.5051 7.06388 17.6246 7.03129 17.7518C6.99869 17.879 6.99148 18.0114 7.01005 18.1414C7.02862 18.2714 7.07262 18.3965 7.13953 18.5095C7.20643 18.6225 7.29494 18.7212 7.4 18.8C7.50506 18.8788 7.62461 18.9361 7.75182 18.9687C7.87903 19.0013 8.01142 19.0085 8.14142 18.99C8.27142 18.9714 8.39649 18.9274 8.50949 18.8605C8.62249 18.7936 8.72121 18.7051 8.8 18.6C9.40546 17.7927 10.1906 17.1375 11.0931 16.6862C11.9957 16.2349 12.9909 16 14 16C15.0091 16 16.0043 16.2349 16.9069 16.6862C17.8095 17.1375 18.5945 17.7927 19.2 18.6C19.3591 18.8122 19.596 18.9524 19.8586 18.99C20.1211 19.0275 20.3878 18.9591 20.6 18.8C20.8122 18.6409 20.9524 18.404 20.99 18.1414C21.0275 17.8789 20.9591 17.6122 20.8 17.4Z" fill="#66B2FF"/>
</svg>
