<svg width="28" height="28" viewBox="0 0 28 28" fill="none" xmlns="http://www.w3.org/2000/svg">
<path d="M28 15V19C28 19.2652 27.8946 19.5196 27.7071 19.7071C27.5196 19.8946 27.2652 20 27 20C26.9341 20.0002 26.8683 19.9935 26.8037 19.98L17.5 18.125V21.0912L19.7075 23.2975C19.8938 23.484 19.9989 23.7364 20 24V27C20.0003 27.1639 19.9603 27.3253 19.8835 27.4701C19.8067 27.615 19.6955 27.7387 19.5597 27.8304C19.4239 27.9221 19.2676 27.9791 19.1046 27.9962C18.9416 28.0134 18.7769 27.9902 18.625 27.9287L14 26.0775L9.375 27.9287C9.22307 27.9902 9.05835 28.0134 8.89536 27.9962C8.73236 27.9791 8.57608 27.9221 8.44027 27.8304C8.30445 27.7387 8.19327 27.615 8.11649 27.4701C8.03972 27.3253 7.99972 27.1639 8 27V24C7.9999 23.8686 8.02568 23.7385 8.07586 23.6171C8.12605 23.4958 8.19967 23.3854 8.2925 23.2925L10.5 21.0863V18.125L1.19625 19.98C1.1317 19.9935 1.06593 20.0002 1 20C0.734784 20 0.48043 19.8946 0.292893 19.7071C0.105357 19.5196 2.56378e-07 19.2652 2.56378e-07 19V15C-0.00013275 14.8142 0.0514889 14.6321 0.149077 14.474C0.246665 14.3159 0.386361 14.1881 0.5525 14.105L10.5 9.1325V3.5C10.5 2.57174 10.8687 1.6815 11.5251 1.02513C12.1815 0.368749 13.0717 0 14 0C14.9283 0 15.8185 0.368749 16.4749 1.02513C17.1313 1.6815 17.5 2.57174 17.5 3.5V9.1325L27.4475 14.105C27.6136 14.1881 27.7533 14.3159 27.8509 14.474C27.9485 14.6321 28.0001 14.8142 28 15Z" fill="#66B2FF"/>
</svg>
