<svg width="24" height="28" viewBox="0 0 24 28" fill="none" xmlns="http://www.w3.org/2000/svg">
<path d="M12 0C8.81852 0.0036392 5.76839 1.26909 3.51874 3.51874C1.26909 5.76839 0.0036392 8.81852 0 12C0 15 1.57 18.8825 4.20125 22.375C6.84875 25.8937 9.76375 28 12 28C14.2362 28 17.1512 25.8988 19.7987 22.375C22.43 18.875 24 15 24 12C23.9964 8.81852 22.7309 5.76839 20.4813 3.51874C18.2316 1.26909 15.1815 0.0036392 12 0ZM4 12.5C4 12.1022 4.15804 11.7206 4.43934 11.4393C4.72064 11.158 5.10218 11 5.5 11C6.69347 11 7.83807 11.4741 8.68198 12.318C9.52589 13.1619 10 14.3065 10 15.5C10 15.8978 9.84196 16.2794 9.56066 16.5607C9.27936 16.842 8.89782 17 8.5 17C7.30653 17 6.16193 16.5259 5.31802 15.682C4.47411 14.8381 4 13.6935 4 12.5ZM14 23H10C9.73478 23 9.48043 22.8946 9.29289 22.7071C9.10536 22.5196 9 22.2652 9 22C9 21.7348 9.10536 21.4804 9.29289 21.2929C9.48043 21.1054 9.73478 21 10 21H14C14.2652 21 14.5196 21.1054 14.7071 21.2929C14.8946 21.4804 15 21.7348 15 22C15 22.2652 14.8946 22.5196 14.7071 22.7071C14.5196 22.8946 14.2652 23 14 23ZM15.5 17C15.1022 17 14.7206 16.842 14.4393 16.5607C14.158 16.2794 14 15.8978 14 15.5C14 14.3065 14.4741 13.1619 15.318 12.318C16.1619 11.4741 17.3065 11 18.5 11C18.8978 11 19.2794 11.158 19.5607 11.4393C19.842 11.7206 20 12.1022 20 12.5C20 13.0909 19.8836 13.6761 19.6575 14.2221C19.4313 14.768 19.0998 15.2641 18.682 15.682C18.2641 16.0998 17.768 16.4313 17.2221 16.6575C16.6761 16.8836 16.0909 17 15.5 17Z" fill="#66B2FF"/>
</svg>
