<svg width="32" height="26" viewBox="0 0 32 26" fill="none" xmlns="http://www.w3.org/2000/svg">
<path d="M31.7987 10.1187C31.6791 9.76234 31.4614 9.44688 31.1707 9.20855C30.8799 8.97021 30.5279 8.81864 30.155 8.77123C27.8731 8.46464 25.6769 7.69927 23.6987 6.52123L24.9875 5.23373C25.5304 4.63991 25.8234 3.85956 25.8054 3.05514C25.7874 2.25072 25.4599 1.48424 24.8909 0.915292C24.322 0.346341 23.5555 0.0187695 22.7511 0.000781835C21.9466 -0.0172058 21.1663 0.275777 20.5725 0.818727L18.9225 2.46998C18.6312 2.11998 18.4462 1.86498 18.3712 1.75873C18.2038 1.51959 17.9861 1.31999 17.7334 1.17395C17.4806 1.02791 17.199 0.938955 16.9082 0.913344C16.6175 0.887733 16.3246 0.926082 16.0502 1.0257C15.7758 1.12531 15.5266 1.28378 15.32 1.48998L10.49 6.32373C10.2839 6.53025 10.1256 6.77934 10.026 7.05354C9.9264 7.32774 9.88801 7.62041 9.9135 7.91102C9.93899 8.20163 10.0277 8.48314 10.1735 8.73582C10.3193 8.9885 10.5186 9.20622 10.7575 9.37373C10.865 9.44873 11.12 9.63373 11.47 9.92498L0.818727 20.575C0.275777 21.1688 -0.0172058 21.9491 0.000781835 22.7536C0.0187695 23.558 0.346342 24.3245 0.915292 24.8934C1.48424 25.4624 2.25072 25.7899 3.05514 25.8079C3.85956 25.8259 4.63991 25.5329 5.23373 24.99L15.5212 14.7012C16.6987 16.6797 17.4641 18.8757 17.7712 21.1575C17.8192 21.5296 17.9709 21.8807 18.2089 22.1707C18.447 22.4607 18.7618 22.6779 19.1175 22.7975C19.3249 22.8674 19.5423 22.9033 19.7612 22.9037C20.0229 22.9036 20.282 22.8517 20.5235 22.7511C20.7651 22.6505 20.9843 22.5031 21.1687 22.3175L31.3162 12.1687C31.5811 11.9069 31.7669 11.5757 31.8522 11.2131C31.9375 10.8505 31.919 10.4713 31.7987 10.1187ZM21.9912 2.23248C22.0915 2.11305 22.2156 2.01579 22.3555 1.94686C22.4954 1.87793 22.6481 1.83884 22.8039 1.83207C22.9597 1.8253 23.1152 1.85101 23.2606 1.90755C23.4059 1.96409 23.5379 2.05024 23.6482 2.16052C23.7585 2.2708 23.8446 2.4028 23.9012 2.54815C23.9577 2.6935 23.9834 2.84901 23.9766 3.00482C23.9699 3.16064 23.9308 3.31334 23.8618 3.45324C23.7929 3.59314 23.6957 3.71717 23.5762 3.81748L22.0075 5.38623C21.4076 4.935 20.835 4.44874 20.2925 3.92998L21.9912 2.23248ZM3.81873 23.575C3.71842 23.6944 3.59438 23.7917 3.45449 23.8606C3.31459 23.9295 3.16188 23.9686 3.00607 23.9754C2.85026 23.9821 2.69475 23.9564 2.5494 23.8999C2.40405 23.8434 2.27205 23.7572 2.16177 23.6469C2.05149 23.5367 1.96534 23.4047 1.9088 23.2593C1.85226 23.114 1.82655 22.9584 1.83332 22.8026C1.84009 22.6468 1.87918 22.4941 1.94811 22.3542C2.01704 22.2143 2.1143 22.0903 2.23373 21.99L12.9312 11.2925C13.4506 11.8344 13.9369 12.4071 14.3875 13.0075L3.81873 23.575Z" fill="#66B2FF"/>
</svg>
