<svg width="29" height="26" viewBox="0 0 29 26" fill="none" xmlns="http://www.w3.org/2000/svg">
<path d="M25.9475 2.81875C25.8992 2.75932 25.8438 2.70601 25.7825 2.66C23.9387 0.948613 21.5156 -0.00168688 19 2.24791e-06H18C17.4696 2.24791e-06 16.9609 0.210716 16.5858 0.585789C16.2107 0.960861 16 1.46957 16 2V9H5.9C5.66795 7.87139 5.05387 6.8573 4.1613 6.12866C3.26872 5.40003 2.15222 5.00141 1 5C0.734784 5 0.48043 5.10536 0.292893 5.2929C0.105357 5.48043 0 5.73479 0 6C0 6.26522 0.105357 6.51957 0.292893 6.70711C0.48043 6.89465 0.734784 7 1 7C1.79565 7 2.55871 7.31607 3.12132 7.87868C3.68393 8.44129 4 9.20435 4 10C4.00298 12.6513 5.0575 15.1931 6.93222 17.0678C8.80694 18.9425 11.3487 19.997 14 20H19C20.9919 20.0014 22.9387 19.4074 24.5906 18.2944C26.2424 17.1814 27.524 15.6001 28.2707 13.7535C29.0174 11.9069 29.1952 9.87922 28.7812 7.93084C28.3673 5.98247 27.3805 4.20226 25.9475 2.81875ZM25.0837 4.81875C26.0962 6.00164 26.7398 7.45529 26.935 9H19.8512L25.0837 4.81875ZM19 2C20.6419 1.99846 22.2441 2.50543 23.5863 3.45125L18 7.91875V2H19ZM12 24C12 24.3956 11.8827 24.7822 11.6629 25.1111C11.4432 25.44 11.1308 25.6964 10.7654 25.8478C10.3999 25.9991 9.99778 26.0387 9.60982 25.9616C9.22186 25.8844 8.86549 25.6939 8.58579 25.4142C8.30608 25.1345 8.1156 24.7781 8.03843 24.3902C7.96126 24.0022 8.00087 23.6001 8.15224 23.2346C8.30362 22.8692 8.55996 22.5568 8.88886 22.3371C9.21776 22.1173 9.60444 22 10 22C10.5304 22 11.0391 22.2107 11.4142 22.5858C11.7893 22.9609 12 23.4696 12 24ZM25 24C25 24.3956 24.8827 24.7822 24.6629 25.1111C24.4432 25.44 24.1308 25.6964 23.7654 25.8478C23.3999 25.9991 22.9978 26.0387 22.6098 25.9616C22.2219 25.8844 21.8655 25.6939 21.5858 25.4142C21.3061 25.1345 21.1156 24.7781 21.0384 24.3902C20.9613 24.0022 21.0009 23.6001 21.1522 23.2346C21.3036 22.8692 21.56 22.5568 21.8889 22.3371C22.2178 22.1173 22.6044 22 23 22C23.5304 22 24.0391 22.2107 24.4142 22.5858C24.7893 22.9609 25 23.4696 25 24Z" fill="#66B2FF"/>
</svg>
