<svg width="32" height="29" viewBox="0 0 32 29" fill="none" xmlns="http://www.w3.org/2000/svg">
<path d="M16.7699 3.01253C16.6824 3.00794 16.5952 3.02643 16.5171 3.06614C16.439 3.10585 16.3727 3.16538 16.3249 3.23878C15.0374 5.18503 14.9999 6.97378 14.9999 7.00003C15.0005 7.14884 15.0343 7.29565 15.0988 7.42974C15.1634 7.56384 15.257 7.68184 15.3729 7.77514C15.4889 7.86843 15.6242 7.93468 15.769 7.96905C15.9138 8.00341 16.0644 8.00503 16.2099 7.97378C16.437 7.91938 16.6389 7.78943 16.7824 7.60523C16.9259 7.42104 17.0026 7.19353 16.9999 6.96003C17.0047 6.82324 17.0375 6.6889 17.0963 6.56531C17.1551 6.44172 17.2386 6.33152 17.3418 6.24153C17.4449 6.15153 17.5654 6.08367 17.6958 6.04212C17.8262 6.00058 17.9637 5.98626 18.0999 6.00003C18.3509 6.02916 18.582 6.15062 18.7484 6.34077C18.9147 6.53093 19.0044 6.77617 18.9999 7.02878C18.9954 7.82442 18.6751 8.58571 18.1093 9.14515C17.5435 9.7046 16.7787 10.0164 15.983 10.0119C15.1874 10.0074 14.4261 9.68706 13.8666 9.12129C13.3072 8.55551 12.9954 7.79067 12.9999 6.99503C12.9999 6.91628 13.0111 5.64753 13.6799 3.99503C13.7138 3.91046 13.7239 3.81826 13.7092 3.72836C13.6945 3.63846 13.6555 3.5543 13.5964 3.48494C13.5374 3.41559 13.4605 3.36369 13.3741 3.33484C13.2877 3.306 13.195 3.30131 13.1061 3.32128C10.1597 3.99808 7.54065 5.67911 5.69824 8.07598C3.85583 10.4728 2.90492 13.4362 3.00865 16.4575C3.2499 23.34 8.90365 28.875 15.7899 28.9875C19.1869 29.0396 22.4693 27.7597 24.9345 25.4219C27.3996 23.0841 28.8517 19.8742 28.9798 16.4792C29.1078 13.0842 27.9018 9.77396 25.6198 7.25706C23.3378 4.74016 20.1612 3.2166 16.7699 3.01253ZM9.9999 15.9888C9.9999 15.6921 10.0879 15.4021 10.2527 15.1554C10.4175 14.9087 10.6518 14.7165 10.9259 14.603C11.2 14.4894 11.5016 14.4597 11.7925 14.5176C12.0835 14.5755 12.3508 14.7183 12.5606 14.9281C12.7703 15.1379 12.9132 15.4052 12.9711 15.6961C13.029 15.9871 12.9992 16.2887 12.8857 16.5628C12.7722 16.8369 12.5799 17.0712 12.3333 17.236C12.0866 17.4008 11.7966 17.4888 11.4999 17.4888C11.1021 17.4888 10.7205 17.3307 10.4392 17.0494C10.1579 16.7681 9.9999 16.3866 9.9999 15.9888ZM20.0336 22.835C18.8235 23.5894 17.426 23.9894 15.9999 23.9894C14.5738 23.9894 13.1763 23.5894 11.9661 22.835C11.7417 22.6935 11.5827 22.4685 11.5241 22.2097C11.4655 21.9509 11.5121 21.6795 11.6536 21.455C11.7952 21.2306 12.0201 21.0716 12.2789 21.013C12.5377 20.9544 12.8092 21.001 13.0336 21.1425C13.9243 21.6953 14.9517 21.9882 15.9999 21.9882C17.0481 21.9882 18.0755 21.6953 18.9661 21.1425C19.0773 21.0724 19.2011 21.0249 19.3306 21.0027C19.4601 20.9805 19.5927 20.9839 19.7209 21.013C19.849 21.042 19.9702 21.096 20.0775 21.1718C20.1848 21.2477 20.2761 21.3439 20.3461 21.455C20.4162 21.5662 20.4638 21.69 20.486 21.8195C20.5082 21.949 20.5047 22.0816 20.4757 22.2097C20.4467 22.3379 20.3927 22.4591 20.3169 22.5664C20.241 22.6736 20.1448 22.7649 20.0336 22.835ZM20.4999 17.4888C20.2032 17.4888 19.9132 17.4008 19.6665 17.236C19.4199 17.0712 19.2276 16.8369 19.1141 16.5628C19.0005 16.2887 18.9708 15.9871 19.0287 15.6961C19.0866 15.4052 19.2295 15.1379 19.4392 14.9281C19.649 14.7183 19.9163 14.5755 20.2073 14.5176C20.4982 14.4597 20.7998 14.4894 21.0739 14.603C21.348 14.7165 21.5823 14.9087 21.7471 15.1554C21.9119 15.4021 21.9999 15.6921 21.9999 15.9888C21.9999 16.3866 21.8419 16.7681 21.5606 17.0494C21.2793 17.3307 20.8977 17.4888 20.4999 17.4888Z" fill="#66B2FF"/>
</svg>
