<svg width="25" height="25" viewBox="0 0 25 25" fill="none" xmlns="http://www.w3.org/2000/svg">
<path d="M12.0614 10.5614C12.3581 10.5614 12.6481 10.6494 12.8948 10.8142C13.1415 10.9791 13.3337 11.2133 13.4473 11.4874C13.5608 11.7615 13.5905 12.0631 13.5326 12.3541C13.4747 12.645 13.3319 12.9123 13.1221 13.1221C12.9123 13.3319 12.645 13.4747 12.3541 13.5326C12.0631 13.5905 11.7615 13.5608 11.4874 13.4473C11.2133 13.3337 10.9791 13.1415 10.8142 12.8948C10.6494 12.6481 10.5614 12.3581 10.5614 12.0614C10.5614 11.6636 10.7195 11.2821 11.0008 11.0008C11.2821 10.7195 11.6636 10.5614 12.0614 10.5614ZM22.5964 15.5264C23.074 15.9877 23.4549 16.5394 23.7169 17.1494C23.979 17.7594 24.1169 18.4155 24.1227 19.0794C24.1285 19.7433 24.002 20.4017 23.7505 21.0162C23.4991 21.6307 23.1279 22.189 22.6584 22.6584C22.189 23.1279 21.6307 23.4991 21.0162 23.7505C20.4017 24.002 19.7433 24.1285 19.0794 24.1227C18.4155 24.1169 17.7594 23.979 17.1494 23.7169C16.5394 23.4549 15.9877 23.074 15.5264 22.5964L12.0614 19.1327L8.59644 22.5964C8.13521 23.074 7.58348 23.4549 6.97346 23.7169C6.36344 23.979 5.70734 24.1169 5.04345 24.1227C4.37955 24.1285 3.72115 24.002 3.10667 23.7505C2.49219 23.4991 1.93393 23.1279 1.46447 22.6584C0.995003 22.189 0.623737 21.6307 0.372333 21.0162C0.120928 20.4017 -0.0055803 19.7433 0.000188784 19.0794C0.00595787 18.4155 0.143889 17.7594 0.405934 17.1494C0.667979 16.5394 1.04889 15.9877 1.52644 15.5264L4.99019 12.0614L1.52644 8.59644C1.04889 8.13521 0.667979 7.58348 0.405934 6.97346C0.143889 6.36344 0.00595787 5.70734 0.000188784 5.04345C-0.0055803 4.37955 0.120928 3.72115 0.372333 3.10667C0.623737 2.49219 0.995003 1.93393 1.46447 1.46447C1.93393 0.995003 2.49219 0.623737 3.10667 0.372333C3.72115 0.120928 4.37955 -0.0055803 5.04345 0.000188784C5.70734 0.00595787 6.36344 0.143889 6.97346 0.405934C7.58348 0.667979 8.13521 1.04889 8.59644 1.52644L12.0614 4.99019L15.5264 1.52644C15.9877 1.04889 16.5394 0.667979 17.1494 0.405934C17.7594 0.143889 18.4155 0.00595787 19.0794 0.000188784C19.7433 -0.0055803 20.4017 0.120928 21.0162 0.372333C21.6307 0.623737 22.189 0.995003 22.6584 1.46447C23.1279 1.93393 23.4991 2.49219 23.7505 3.10667C24.002 3.72115 24.1285 4.37955 24.1227 5.04345C24.1169 5.70734 23.979 6.36344 23.7169 6.97346C23.4549 7.58348 23.074 8.13521 22.5964 8.59644L19.1327 12.0614L22.5964 15.5264ZM10.6477 17.7177L6.40519 13.4752L2.93644 16.9364C2.65738 17.2155 2.43602 17.5468 2.28499 17.9114C2.13397 18.276 2.05624 18.6668 2.05624 19.0614C2.05624 19.4561 2.13397 19.8469 2.28499 20.2115C2.43602 20.5761 2.65738 20.9074 2.93644 21.1864C3.2155 21.4655 3.54679 21.6869 3.9114 21.8379C4.27601 21.9889 4.66679 22.0666 5.06144 22.0666C5.45609 22.0666 5.84687 21.9889 6.21148 21.8379C6.57609 21.6869 6.90738 21.4655 7.18644 21.1864L10.6477 17.7177ZM16.3039 12.0614L12.0614 7.81894L7.81894 12.0614L12.0614 16.3039L16.3039 12.0614ZM21.1789 7.18644C21.458 6.90787 21.6795 6.57707 21.8307 6.21292C21.9819 5.84876 22.0599 5.45839 22.0602 5.06409C22.0606 4.66979 21.9833 4.27928 21.8327 3.91486C21.6821 3.55044 21.4613 3.21925 21.1827 2.94019C20.9041 2.66113 20.5733 2.43967 20.2092 2.28846C19.845 2.13725 19.4546 2.05924 19.0603 2.05889C18.666 2.05854 18.2755 2.13586 17.9111 2.28643C17.5467 2.437 17.2155 2.65787 16.9364 2.93644L13.4752 6.40519L17.7177 10.6477L21.1789 7.18644Z" fill="#66B2FF"/>
</svg>
