<svg width="32" height="20" viewBox="0 0 32 20" fill="none" xmlns="http://www.w3.org/2000/svg">
<path d="M25.0022 2V18C25.0022 18.5304 24.7915 19.0391 24.4164 19.4142C24.0413 19.7893 23.5326 20 23.0022 20H21.0022C20.4718 20 19.9631 19.7893 19.588 19.4142C19.2129 19.0391 19.0022 18.5304 19.0022 18V11H13.0022V18C13.0022 18.5304 12.7915 19.0391 12.4164 19.4142C12.0413 19.7893 11.5326 20 11.0022 20H9.0022C8.47176 20 7.96306 19.7893 7.58798 19.4142C7.21291 19.0391 7.0022 18.5304 7.0022 18V2C7.0022 1.46957 7.21291 0.960859 7.58798 0.585786C7.96306 0.210714 8.47176 0 9.0022 0H11.0022C11.5326 0 12.0413 0.210714 12.4164 0.585786C12.7915 0.960859 13.0022 1.46957 13.0022 2V9H19.0022V2C19.0022 1.46957 19.2129 0.960859 19.588 0.585786C19.9631 0.210714 20.4718 0 21.0022 0H23.0022C23.5326 0 24.0413 0.210714 24.4164 0.585786C24.7915 0.960859 25.0022 1.46957 25.0022 2ZM4.5022 3H4.0022C3.47176 3 2.96306 3.21071 2.58798 3.58579C2.21291 3.96086 2.0022 4.46957 2.0022 5V9H1.03595C0.77753 8.99618 0.527253 9.09037 0.335464 9.2636C0.143675 9.43684 0.0246013 9.67628 0.00219718 9.93375C-0.00688522 10.0705 0.012254 10.2077 0.058426 10.3368C0.104598 10.4659 0.176817 10.5841 0.270596 10.6841C0.364376 10.7841 0.477713 10.8637 0.603569 10.9181C0.729424 10.9724 0.86511 11.0003 1.0022 11H2.0022V15C2.0022 15.5304 2.21291 16.0391 2.58798 16.4142C2.96306 16.7893 3.47176 17 4.0022 17H4.5022C4.63481 17 4.76198 16.9473 4.85575 16.8536C4.94952 16.7598 5.0022 16.6326 5.0022 16.5V3.5C5.0022 3.36739 4.94952 3.24021 4.85575 3.14645C4.76198 3.05268 4.63481 3 4.5022 3ZM32.0022 9.93375C31.9798 9.67671 31.8611 9.43764 31.6698 9.26446C31.4786 9.09129 31.2289 8.99682 30.9709 9H30.0022V5C30.0022 4.46957 29.7915 3.96086 29.4164 3.58579C29.0413 3.21071 28.5326 3 28.0022 3H27.5022C27.3696 3 27.2424 3.05268 27.1486 3.14645C27.0549 3.24021 27.0022 3.36739 27.0022 3.5V16.5C27.0022 16.6326 27.0549 16.7598 27.1486 16.8536C27.2424 16.9473 27.3696 17 27.5022 17H28.0022C28.5326 17 29.0413 16.7893 29.4164 16.4142C29.7915 16.0391 30.0022 15.5304 30.0022 15V11H31.0022C31.1393 11.0003 31.275 10.9724 31.4008 10.9181C31.5267 10.8637 31.64 10.7841 31.7338 10.6841C31.8276 10.5841 31.8998 10.4659 31.946 10.3368C31.9921 10.2077 32.0113 10.0705 32.0022 9.93375Z" fill="#66B2FF"/>
</svg>
