<svg width="26" height="26" viewBox="0 0 26 26" fill="none" xmlns="http://www.w3.org/2000/svg">
<path d="M13 0C10.4288 0 7.91543 0.762437 5.77759 2.1909C3.63975 3.61935 1.97351 5.64968 0.989572 8.02512C0.0056327 10.4006 -0.251811 13.0144 0.249797 15.5362C0.751405 18.0579 1.98953 20.3743 3.80762 22.1924C5.6257 24.0105 7.94208 25.2486 10.4638 25.7502C12.9856 26.2518 15.5995 25.9944 17.9749 25.0104C20.3503 24.0265 22.3807 22.3603 23.8091 20.2224C25.2376 18.0846 26 15.5712 26 13C25.9964 9.5533 24.6256 6.24882 22.1884 3.81163C19.7512 1.37445 16.4467 0.00363977 13 0ZM23.43 9.5C21.5476 8.89187 19.5983 8.51412 17.625 8.375C17.4859 6.40166 17.1081 4.45245 16.5 2.57C18.1102 3.11454 19.5731 4.02308 20.775 5.22499C21.9769 6.42691 22.8855 7.88982 23.43 9.5ZM7.62501 3.405C10.7402 4.43449 13.6056 6.10396 16.0375 8.30625C11.0371 8.26282 6.14274 9.7483 2.01001 12.5638C2.08571 10.6846 2.64153 8.85626 3.62448 7.25296C4.60742 5.64966 5.98471 4.32489 7.62501 3.405ZM13.435 23.99C16.2507 19.8569 17.7362 14.9621 17.6925 9.96125C19.8954 12.3934 21.5653 15.2593 22.595 18.375C21.6751 20.0153 20.3504 21.3926 18.747 22.3755C17.1437 23.3585 15.3154 23.9143 13.4363 23.99H13.435Z" fill="#66B2FF"/>
</svg>
