<svg width="29" height="29" viewBox="0 0 29 29" fill="none" xmlns="http://www.w3.org/2000/svg">
<path d="M28.0065 2C27.7412 2 27.4869 2.10536 27.2994 2.29289C27.1118 2.48043 27.0065 2.73478 27.0065 3C26.9818 3.74462 26.8309 4.47964 26.5602 5.17375C26.054 6.4025 25.219 7 24.0065 7C22.624 7 21.6502 5.78 20.3202 3.91875C19.0065 2.0825 17.5215 0 15.0065 0C12.9577 0 11.3815 1.11125 10.5777 3.125C10.3422 3.72871 10.1786 4.35804 10.0902 5H8.00647C7.47603 5 6.96733 5.21071 6.59225 5.58579C6.21718 5.96086 6.00647 6.46957 6.00647 7V8.19875C3.8044 9.32066 2.04429 11.1514 1.00988 13.3959C-0.0245229 15.6404 -0.27295 18.1679 0.304647 20.5708C0.882245 22.9738 2.25221 25.1122 4.1937 26.6414C6.13519 28.1706 8.53507 29.0015 11.0065 29H11.2052C13.6598 28.9578 16.0297 28.0957 17.9377 26.551C19.8457 25.0062 21.1822 22.8676 21.7343 20.4755C22.2864 18.0835 22.0225 15.5755 20.9845 13.3508C19.9466 11.1261 18.1942 9.31248 16.0065 8.19875V7C16.0065 6.46957 15.7958 5.96086 15.4207 5.58579C15.0456 5.21071 14.5369 5 14.0065 5H12.1165C12.1874 4.59893 12.3001 4.20639 12.4527 3.82875C12.959 2.5975 13.794 2 15.0065 2C16.389 2 17.3627 3.22 18.6927 5.08125C20.0065 6.9175 21.4915 9 24.0065 9C26.0552 9 27.6315 7.88875 28.4352 5.875C28.789 4.95649 28.9822 3.98399 29.0065 3C29.0065 2.73478 28.9011 2.48043 28.7136 2.29289C28.526 2.10536 28.2717 2 28.0065 2ZM10.9927 24.165C10.9537 24.3984 10.8332 24.6103 10.6526 24.7632C10.472 24.9161 10.2431 25 10.0065 25C9.95078 24.9998 9.89519 24.9952 9.84022 24.9862C8.39048 24.729 7.05472 24.0327 6.0136 22.9916C4.97247 21.9505 4.2762 20.6147 4.01897 19.165C3.99596 19.0349 3.99896 18.9016 4.02779 18.7726C4.05661 18.6437 4.1107 18.5218 4.18691 18.4139C4.26313 18.306 4.35997 18.2143 4.47184 18.144C4.58371 18.0738 4.70839 18.0264 4.83868 18.0046C4.96897 17.9828 5.10229 17.987 5.23094 18.017C5.35958 18.047 5.481 18.1023 5.58819 18.1795C5.69538 18.2567 5.7862 18.3544 5.85542 18.4669C5.92464 18.5794 5.97088 18.7045 5.99147 18.835C6.17636 19.8756 6.67624 20.8343 7.42357 21.5816C8.1709 22.329 9.12963 22.8289 10.1702 23.0138C10.2998 23.0353 10.424 23.0821 10.5355 23.1517C10.647 23.2212 10.7437 23.312 10.8201 23.4189C10.8964 23.5258 10.951 23.6468 10.9806 23.7748C11.0103 23.9028 11.0144 24.0354 10.9927 24.165Z" fill="#66B2FF"/>
</svg>
