<svg width="24" height="25" viewBox="0 0 24 25" fill="none" xmlns="http://www.w3.org/2000/svg">
<path d="M24 7C24.0032 4.67559 23.3285 2.40068 22.0588 0.45375C21.9679 0.314437 21.8437 0.199983 21.6975 0.120754C21.5513 0.0415242 21.3876 2.03239e-05 21.2213 0H2.77876C2.61244 2.03239e-05 2.44875 0.0415242 2.30252 0.120754C2.15628 0.199983 2.03211 0.314437 1.94126 0.45375C0.671479 2.40068 -0.00312953 4.67559 1.09148e-05 7C0.00365438 10.0084 1.13572 12.9059 3.17246 15.1199C5.2092 17.334 8.0024 18.7034 11 18.9575V23H7.00001C6.73479 23 6.48044 23.1054 6.2929 23.2929C6.10537 23.4804 6.00001 23.7348 6.00001 24C6.00001 24.2652 6.10537 24.5196 6.2929 24.7071C6.48044 24.8946 6.73479 25 7.00001 25H17C17.2652 25 17.5196 24.8946 17.7071 24.7071C17.8947 24.5196 18 24.2652 18 24C18 23.7348 17.8947 23.4804 17.7071 23.2929C17.5196 23.1054 17.2652 23 17 23H13V18.9575C15.9976 18.7034 18.7908 17.334 20.8276 15.1199C22.8643 12.9059 23.9964 10.0084 24 7ZM3.33751 2H20.6625C21.3718 3.22635 21.8108 4.59015 21.95 6H2.05001C2.18922 4.59015 2.6282 3.22635 3.33751 2Z" fill="#66B2FF"/>
</svg>
