<svg width="26" height="24" viewBox="0 0 26 24" fill="none" xmlns="http://www.w3.org/2000/svg">
<path d="M0.5 11H25.5C25.6326 11 25.7598 11.0527 25.8536 11.1464C25.9473 11.2402 26 11.3674 26 11.5V16.5C26 16.6326 25.9473 16.7598 25.8536 16.8536C25.7598 16.9473 25.6326 17 25.5 17H0.5C0.367392 17 0.240215 16.9473 0.146447 16.8536C0.0526785 16.7598 0 16.6326 0 16.5V11.5C0 11.3674 0.0526785 11.2402 0.146447 11.1464C0.240215 11.0527 0.367392 11 0.5 11ZM0 22C0 22.5304 0.210714 23.0391 0.585786 23.4142C0.960859 23.7893 1.46957 24 2 24H24C24.5304 24 25.0391 23.7893 25.4142 23.4142C25.7893 23.0391 26 22.5304 26 22V19.5C26 19.3674 25.9473 19.2402 25.8536 19.1464C25.7598 19.0527 25.6326 19 25.5 19H0.5C0.367392 19 0.240215 19.0527 0.146447 19.1464C0.0526785 19.2402 0 19.3674 0 19.5V22ZM26 6V8.5C26 8.63261 25.9473 8.75979 25.8536 8.85355C25.7598 8.94732 25.6326 9 25.5 9H0.5C0.367392 9 0.240215 8.94732 0.146447 8.85355C0.0526785 8.75979 0 8.63261 0 8.5V6C0 5.46957 0.210714 4.96086 0.585786 4.58579C0.960859 4.21071 1.46957 4 2 4H7V3C7 2.20435 7.31607 1.44129 7.87868 0.87868C8.44129 0.316071 9.20435 0 10 0H16C16.7956 0 17.5587 0.316071 18.1213 0.87868C18.6839 1.44129 19 2.20435 19 3V4H24C24.5304 4 25.0391 4.21071 25.4142 4.58579C25.7893 4.96086 26 5.46957 26 6ZM17 3C17 2.73478 16.8946 2.48043 16.7071 2.29289C16.5196 2.10536 16.2652 2 16 2H10C9.73478 2 9.48043 2.10536 9.29289 2.29289C9.10536 2.48043 9 2.73478 9 3V4H17V3Z" fill="#66B2FF"/>
</svg>
