<svg width="28" height="26" viewBox="0 0 28 26" fill="none" xmlns="http://www.w3.org/2000/svg">
<path d="M26 25C26 25.2652 25.8946 25.5196 25.7071 25.7071C25.5196 25.8946 25.2652 26 25 26H3C2.73478 26 2.48043 25.8946 2.29289 25.7071C2.10536 25.5196 2 25.2652 2 25C2 24.7348 2.10536 24.4804 2.29289 24.2929C2.48043 24.1054 2.73478 24 3 24H9V15H8C5.87898 14.9977 3.84549 14.1541 2.3457 12.6543C0.845914 11.1545 0.00231607 9.12102 0 7C0.0023168 6.20333 0.320503 5.4401 0.884773 4.87771C1.44904 4.31531 2.21333 3.99967 3.01 4H3.06C3.83943 4.00099 4.58666 4.31106 5.1378 4.8622C5.68894 5.41334 5.99901 6.16057 6 6.94V7C6 7.53043 6.21071 8.03914 6.58579 8.41421C6.96086 8.78929 7.46957 9 8 9H9V5C9 3.67392 9.52678 2.40215 10.4645 1.46447C11.4021 0.526784 12.6739 0 14 0C15.3261 0 16.5979 0.526784 17.5355 1.46447C18.4732 2.40215 19 3.67392 19 5V14H20C20.5304 14 21.0391 13.7893 21.4142 13.4142C21.7893 13.0391 22 12.5304 22 12V11.94C22.001 11.1606 22.3111 10.4133 22.8622 9.8622C23.4133 9.31106 24.1606 9.00099 24.94 9H24.99C25.7867 8.99967 26.551 9.31531 27.1152 9.87771C27.6795 10.4401 27.9977 11.2033 28 12C27.9977 14.121 27.1541 16.1545 25.6543 17.6543C24.1545 19.1541 22.121 19.9977 20 20H19V24H25C25.2652 24 25.5196 24.1054 25.7071 24.2929C25.8946 24.4804 26 24.7348 26 25Z" fill="#66B2FF"/>
</svg>
