<svg width="27" height="29" viewBox="0 0 27 29" fill="none" xmlns="http://www.w3.org/2000/svg">
<path d="M24.7412 24.7434L22.535 25.3346L21.2325 20.4734C22.2627 19.9574 23.0835 19.102 23.5565 18.0514C24.0294 17.0008 24.1256 15.8192 23.8288 14.7059C22.2537 8.83086 18.9813 3.67836 18.8425 3.46211C18.7296 3.28564 18.5641 3.14907 18.3695 3.0717C18.1748 2.99432 17.9607 2.98003 17.7575 3.03086L15.025 3.71461C15.025 2.68336 15.0025 2.03586 14.9988 1.95461C14.9888 1.73979 14.9098 1.5339 14.7736 1.3675C14.6374 1.2011 14.4511 1.08305 14.2425 1.03086L10.2425 0.0308596C10.0393 -0.0199657 9.8252 -0.00568141 9.63053 0.0716962C9.43585 0.149074 9.27039 0.285637 9.1575 0.46211C9.01875 0.67836 5.74625 5.82836 4.17125 11.7121C3.87442 12.8254 3.97059 14.007 4.44353 15.0576C4.91648 16.1083 5.73728 16.9637 6.7675 17.4796L5.465 22.3346L3.25875 21.7434C3.00248 21.6747 2.72945 21.7107 2.49972 21.8434C2.26999 21.9761 2.10237 22.1946 2.03375 22.4509C1.96513 22.7071 2.00111 22.9802 2.13379 23.2099C2.26648 23.4396 2.48498 23.6072 2.74125 23.6759L8.74125 25.2834C8.82572 25.3055 8.91267 25.3169 9 25.3171C9.24282 25.3174 9.47744 25.2293 9.66008 25.0693C9.84273 24.9093 9.96092 24.6883 9.9926 24.4476C10.0243 24.2068 9.96728 23.9628 9.83225 23.761C9.69722 23.5592 9.49337 23.4134 9.25875 23.3509L7.39625 22.8509L8.69875 17.9896C8.8 17.9959 8.9 17.9996 9 17.9996C9.99208 17.9968 10.961 17.6998 11.7843 17.1463C12.6076 16.5927 13.2482 15.8073 13.625 14.8896C13.7725 15.6859 13.95 16.4921 14.1637 17.2921C14.4499 18.3561 15.0788 19.296 15.9531 19.9664C16.8273 20.6369 17.8982 21.0005 19 21.0009C19.1 21.0009 19.2 21.0009 19.3013 20.9909L20.6038 25.8521L18.7412 26.3521C18.5077 26.4156 18.3051 26.5616 18.171 26.763C18.0369 26.9645 17.9804 27.2077 18.012 27.4477C18.0436 27.6876 18.1612 27.9079 18.3428 28.0678C18.5245 28.2277 18.758 28.3163 19 28.3171C19.0873 28.3169 19.1743 28.3055 19.2588 28.2834L25.2588 26.6759C25.515 26.6072 25.7335 26.4396 25.8662 26.2099C25.9989 25.9802 26.0349 25.7071 25.9662 25.4509C25.8976 25.1946 25.73 24.9761 25.5003 24.8434C25.2705 24.7107 24.9975 24.6747 24.7412 24.7434ZM17.5275 5.14961C17.875 5.73711 18.4312 6.71711 19.0525 7.95711L15 8.97211C14.9475 7.72211 14.9525 6.69086 14.9688 5.99836C14.9688 5.92836 14.975 5.85836 14.9788 5.78836L17.5275 5.14961ZM10.4725 2.14961L13.0188 2.78586C13.0262 3.32086 13.0188 4.11961 12.9925 5.09461C12.985 5.24586 12.9725 5.49336 12.9637 5.82461C12.9637 5.94961 12.9513 6.07461 12.9438 6.19961L8.83625 5.17961C9.5 3.83461 10.105 2.77086 10.4725 2.14961ZM21.105 3.44836C21.0461 3.33084 21.011 3.20288 21.0017 3.07178C20.9923 2.94069 21.0089 2.80903 21.0505 2.68435C21.092 2.55966 21.1578 2.44439 21.2439 2.34513C21.33 2.24587 21.4349 2.16456 21.5525 2.10586L23.5525 1.10586C23.67 1.04709 23.798 1.01205 23.9291 1.00274C24.0601 0.993421 24.1918 1.01001 24.3164 1.05157C24.4411 1.09312 24.5563 1.15882 24.6556 1.24492C24.7549 1.33102 24.8362 1.43583 24.895 1.55336C24.9538 1.67089 24.9888 1.79885 24.9981 1.92993C25.0074 2.061 24.9908 2.19263 24.9493 2.31729C24.9077 2.44195 24.842 2.55721 24.7559 2.65648C24.6698 2.75575 24.565 2.83709 24.4475 2.89586L22.4475 3.89586C22.33 3.95471 22.202 3.98982 22.0709 3.99918C21.9398 4.00854 21.8082 3.99196 21.6835 3.9504C21.5588 3.90884 21.4435 3.84311 21.3443 3.75696C21.245 3.67082 21.1637 3.56595 21.105 3.44836ZM27 7.00086C27 7.26608 26.8946 7.52043 26.7071 7.70797C26.5196 7.8955 26.2652 8.00086 26 8.00086H24C23.7348 8.00086 23.4804 7.8955 23.2929 7.70797C23.1054 7.52043 23 7.26608 23 7.00086C23 6.73564 23.1054 6.48129 23.2929 6.29375C23.4804 6.10622 23.7348 6.00086 24 6.00086H26C26.2652 6.00086 26.5196 6.10622 26.7071 6.29375C26.8946 6.48129 27 6.73564 27 7.00086ZM2.105 0.55336C2.1637 0.435768 2.24501 0.330901 2.34427 0.244756C2.44353 0.158611 2.5588 0.0928786 2.68349 0.0513169C2.80817 0.00975518 2.93983 -0.00682031 3.07092 0.0025386C3.20202 0.0118975 3.32998 0.0470072 3.4475 0.10586L5.4475 1.10586C5.56503 1.16463 5.66984 1.24597 5.75594 1.34524C5.84203 1.44451 5.90774 1.55977 5.94929 1.68443C5.99085 1.80909 6.00744 1.94072 5.99812 2.07179C5.98881 2.20287 5.95377 2.33083 5.895 2.44836C5.83623 2.56589 5.75489 2.6707 5.65562 2.7568C5.55635 2.84289 5.44109 2.9086 5.31643 2.95015C5.06466 3.03407 4.78987 3.01454 4.5525 2.89586L2.5525 1.89586C2.43491 1.83716 2.33004 1.75585 2.2439 1.65659C2.15775 1.55733 2.09202 1.44206 2.05046 1.31737C2.0089 1.19269 1.99232 1.06103 2.00168 0.929938C2.01104 0.798841 2.04615 0.670876 2.105 0.55336ZM3 7.00086H1C0.734784 7.00086 0.48043 6.8955 0.292893 6.70797C0.105357 6.52043 0 6.26608 0 6.00086C0 5.73564 0.105357 5.48129 0.292893 5.29375C0.48043 5.10622 0.734784 5.00086 1 5.00086H3C3.26522 5.00086 3.51957 5.10622 3.70711 5.29375C3.89464 5.48129 4 5.73564 4 6.00086C4 6.26608 3.89464 6.52043 3.70711 6.70797C3.51957 6.8955 3.26522 7.00086 3 7.00086Z" fill="#66B2FF"/>
</svg>
