<svg width="24" height="26" viewBox="0 0 24 26" fill="none" xmlns="http://www.w3.org/2000/svg">
<path d="M12 0C5.27125 0 0 3.075 0 7V19C0 22.925 5.27125 26 12 26C18.7288 26 24 22.925 24 19V7C24 3.075 18.7288 0 12 0ZM22 13C22 14.2025 21.015 15.4288 19.2987 16.365C17.3662 17.4188 14.7738 18 12 18C9.22625 18 6.63375 17.4188 4.70125 16.365C2.985 15.4288 2 14.2025 2 13V10.92C4.1325 12.795 7.77875 14 12 14C16.2213 14 19.8675 12.79 22 10.92V13ZM19.2987 22.365C17.3662 23.4188 14.7738 24 12 24C9.22625 24 6.63375 23.4188 4.70125 22.365C2.985 21.4287 2 20.2025 2 19V16.92C4.1325 18.795 7.77875 20 12 20C16.2213 20 19.8675 18.79 22 16.92V19C22 20.2025 21.015 21.4287 19.2987 22.365Z" fill="#66B2FF"/>
</svg>
