<svg width="25" height="25" viewBox="0 0 25 25" fill="none" xmlns="http://www.w3.org/2000/svg">
<path d="M10 10C10 9.60218 10.158 9.22064 10.4393 8.93934C10.7206 8.65804 11.1022 8.5 11.5 8.5H18.5C18.8978 8.5 19.2794 8.65804 19.5607 8.93934C19.842 9.22064 20 9.60218 20 10C20 10.3978 19.842 10.7794 19.5607 11.0607C19.2794 11.342 18.8978 11.5 18.5 11.5H11.5C11.1022 11.5 10.7206 11.342 10.4393 11.0607C10.158 10.7794 10 10.3978 10 10ZM18.5 13.5H11.5C11.1022 13.5 10.7206 13.658 10.4393 13.9393C10.158 14.2206 10 14.6022 10 15C10 15.3978 10.158 15.7794 10.4393 16.0607C10.7206 16.342 11.1022 16.5 11.5 16.5H18.5C18.8978 16.5 19.2794 16.342 19.5607 16.0607C19.842 15.7794 20 15.3978 20 15C20 14.6022 19.842 14.2206 19.5607 13.9393C19.2794 13.658 18.8978 13.5 18.5 13.5ZM25 2.5V22.5C25 23.163 24.7366 23.7989 24.2678 24.2678C23.7989 24.7366 23.163 25 22.5 25H2.5C1.83696 25 1.20107 24.7366 0.732233 24.2678C0.263392 23.7989 0 23.163 0 22.5V2.5C0 1.83696 0.263392 1.20107 0.732233 0.732233C1.20107 0.263392 1.83696 0 2.5 0H22.5C23.163 0 23.7989 0.263392 24.2678 0.732233C24.7366 1.20107 25 1.83696 25 2.5ZM3 22H5V3H3V22ZM22 3H8V22H22V3Z" fill="#868E96"/>
</svg>
