<svg width="28" height="25" viewBox="0 0 28 25" fill="none" xmlns="http://www.w3.org/2000/svg">
<path d="M27.9655 12.6323L25.913 1.63228C25.8629 1.36415 25.7584 1.10912 25.606 0.882859C25.4537 0.6566 25.2566 0.463901 25.027 0.316612C24.7974 0.169323 24.5401 0.0705583 24.271 0.0263909C24.0018 -0.0177765 23.7264 -0.00641271 23.4618 0.0597834L23.423 0.0710334L16.858 2.00728H11.1455L4.58054 0.0772833L4.54179 0.0660333C4.27716 -0.00016281 4.00179 -0.0115265 3.73261 0.0326408C3.46343 0.0768082 3.20613 0.175573 2.97654 0.322862C2.74694 0.470151 2.5499 0.662849 2.39753 0.889109C2.24517 1.11537 2.14069 1.3704 2.09054 1.63853L0.0380413 12.6323C-0.0497298 13.0726 0.0154216 13.5296 0.222719 13.9279C0.430016 14.3261 0.767039 14.6416 1.17804 14.8223C1.44125 14.943 1.72722 15.0061 2.01679 15.0073C2.36338 15.0071 2.70356 14.9139 3.00179 14.7373V20.0073C3.00179 21.3334 3.52858 22.6051 4.46626 23.5428C5.40394 24.4805 6.67571 25.0073 8.00179 25.0073H20.0018C21.3279 25.0073 22.5996 24.4805 23.5373 23.5428C24.475 22.6051 25.0018 21.3334 25.0018 20.0073V14.7385C25.2997 14.9148 25.6394 15.008 25.9855 15.0085C26.2754 15.0077 26.5618 14.9451 26.8255 14.8248C27.237 14.644 27.5744 14.3281 27.7817 13.9293C27.9891 13.5306 28.0539 13.0729 27.9655 12.6323ZM20.0018 23.0073H15.0018V21.421L16.7093 19.7148C16.8969 19.5271 17.0023 19.2726 17.0023 19.0073C17.0023 18.7419 16.8969 18.4874 16.7093 18.2998C16.5217 18.1121 16.2672 18.0067 16.0018 18.0067C15.7364 18.0067 15.4819 18.1121 15.2943 18.2998L14.0018 19.5935L12.7093 18.2998C12.5217 18.1121 12.2672 18.0067 12.0018 18.0067C11.7364 18.0067 11.4819 18.1121 11.2943 18.2998C11.1066 18.4874 11.0012 18.7419 11.0012 19.0073C11.0012 19.2726 11.1066 19.5271 11.2943 19.7148L13.0018 21.421V23.0073H8.00179C7.20614 23.0073 6.44308 22.6912 5.88047 22.1286C5.31786 21.566 5.00179 20.8029 5.00179 20.0073V12.396L11.493 4.00728H16.5105L23.0018 12.396V20.0073C23.0018 20.8029 22.6857 21.566 22.1231 22.1286C21.5605 22.6912 20.7974 23.0073 20.0018 23.0073ZM11.0018 14.5073C11.0018 14.804 10.9138 15.094 10.749 15.3406C10.5842 15.5873 10.3499 15.7796 10.0758 15.8931C9.80173 16.0066 9.50013 16.0363 9.20916 15.9785C8.91818 15.9206 8.65091 15.7777 8.44113 15.5679C8.23135 15.3582 8.08849 15.0909 8.03061 14.7999C7.97273 14.5089 8.00244 14.2073 8.11597 13.9333C8.2295 13.6592 8.42176 13.4249 8.66844 13.2601C8.91511 13.0953 9.20512 13.0073 9.50179 13.0073C9.89962 13.0073 10.2811 13.1653 10.5625 13.4466C10.8438 13.7279 11.0018 14.1095 11.0018 14.5073ZM20.0018 14.5073C20.0018 14.804 19.9138 15.094 19.749 15.3406C19.5842 15.5873 19.3499 15.7796 19.0758 15.8931C18.8017 16.0066 18.5001 16.0363 18.2092 15.9785C17.9182 15.9206 17.6509 15.7777 17.4411 15.5679C17.2314 15.3582 17.0885 15.0909 17.0306 14.7999C16.9727 14.5089 17.0024 14.2073 17.116 13.9333C17.2295 13.6592 17.4218 13.4249 17.6684 13.2601C17.9151 13.0953 18.2051 13.0073 18.5018 13.0073C18.8996 13.0073 19.2811 13.1653 19.5625 13.4466C19.8438 13.7279 20.0018 14.1095 20.0018 14.5073Z" fill="#66B2FF"/>
</svg>
