<svg width="22" height="29" viewBox="0 0 22 29" fill="none" xmlns="http://www.w3.org/2000/svg">
<path d="M3.2819 10.0309C3.14401 9.8055 3.05448 9.55386 3.01898 9.29199C2.98347 9.03011 3.00277 8.76372 3.07565 8.5097C3.12522 8.29881 3.20972 8.0977 3.32565 7.9147L5.9994 4.0897V1.0022C5.99909 0.86511 6.02698 0.729424 6.08133 0.603569C6.13568 0.477713 6.21532 0.364376 6.31531 0.270596C6.4153 0.176817 6.53351 0.104598 6.66259 0.058426C6.79167 0.012254 6.92886 -0.00688522 7.06565 0.00219718C7.32323 0.0243153 7.56284 0.143304 7.73613 0.335157C7.90943 0.52701 8.00351 0.777448 7.9994 1.03595V4.0547L8.65565 4.8772C8.94132 5.23548 9.30554 5.52328 9.72018 5.71835C10.1348 5.91342 10.5887 6.01054 11.0469 6.0022C11.4993 5.9894 11.9434 5.87716 12.3476 5.67344C12.7518 5.46972 13.1062 5.17952 13.3856 4.82345L13.9994 4.0547V1.0022C13.9991 0.86511 14.027 0.729424 14.0813 0.603569C14.1357 0.477713 14.2153 0.364376 14.3153 0.270596C14.4153 0.176817 14.5335 0.104598 14.6626 0.058426C14.7917 0.012254 14.9289 -0.00688522 15.0656 0.00219718C15.3232 0.0243153 15.5628 0.143304 15.7361 0.335157C15.9094 0.52701 16.0035 0.777448 15.9994 1.03595V4.0897L18.6769 7.9147C18.7928 8.0977 18.8773 8.29881 18.9269 8.5097C18.9998 8.76372 19.0191 9.03011 18.9836 9.29199C18.9481 9.55386 18.8585 9.8055 18.7206 10.0309C18.7156 10.0382 18.711 10.0457 18.7069 10.0534L16.9744 12.7709C16.9289 12.8423 16.8661 12.901 16.7917 12.9414C16.7174 12.9818 16.634 13.0028 16.5494 13.0022H5.4494C5.36541 13.0021 5.28279 12.9809 5.20917 12.9405C5.13555 12.9001 5.07329 12.8418 5.02815 12.7709L3.29565 10.0534C3.29152 10.0457 3.28693 10.0382 3.2819 10.0309ZM21.8444 26.2259C21.8392 26.2113 21.8329 26.1971 21.8256 26.1834L16.7106 15.2897C16.6702 15.2036 16.606 15.1308 16.5257 15.0798C16.4453 15.0289 16.352 15.002 16.2569 15.0022H5.7419C5.64675 15.002 5.55351 15.0289 5.47313 15.0798C5.39276 15.1308 5.32858 15.2036 5.28815 15.2897L0.173146 26.1834C0.165859 26.1971 0.159592 26.2113 0.154397 26.2259C0.0453521 26.4889 -0.00700299 26.7718 0.000751136 27.0564C0.00850526 27.3409 0.0761937 27.6206 0.199396 27.8772C0.363621 28.2147 0.619522 28.4992 0.937836 28.6982C1.25615 28.8971 1.62403 29.0025 1.9994 29.0022H19.9994C20.3746 29.0023 20.7422 28.8968 21.0602 28.6979C21.3783 28.4989 21.634 28.2145 21.7981 27.8772C21.9215 27.6207 21.9895 27.341 21.9974 27.0565C22.0054 26.772 21.9532 26.489 21.8444 26.2259Z" fill="#66B2FF"/>
</svg>
