<svg width="24" height="25" viewBox="0 0 24 25" fill="none" xmlns="http://www.w3.org/2000/svg">
<path d="M23.7074 21.9713L15.9961 9.115V2H16.9961C17.2613 2 17.5157 1.89464 17.7032 1.70711C17.8908 1.51957 17.9961 1.26522 17.9961 1C17.9961 0.734784 17.8908 0.48043 17.7032 0.292893C17.5157 0.105357 17.2613 0 16.9961 0H6.99612C6.73091 0 6.47655 0.105357 6.28901 0.292893C6.10148 0.48043 5.99612 0.734784 5.99612 1C5.99612 1.26522 6.10148 1.51957 6.28901 1.70711C6.47655 1.89464 6.73091 2 6.99612 2H7.99612V9.115L0.284872 21.9713C0.103002 22.2745 0.00476399 22.6205 0.000168947 22.974C-0.0044261 23.3276 0.0847858 23.676 0.258714 23.9838C0.432642 24.2917 0.685069 24.5479 0.990273 24.7264C1.29548 24.9049 1.64255 24.9993 1.99612 25H21.9961C22.35 25 22.6976 24.9061 23.0033 24.7278C23.309 24.5496 23.562 24.2934 23.7364 23.9855C23.9107 23.6775 24.0003 23.3288 23.9958 22.9749C23.9914 22.6211 23.8932 22.2747 23.7111 21.9713H23.7074ZM12.4474 16.6075C10.4586 15.6012 8.56612 15.0675 6.79487 15.0063L9.85362 9.90625C9.94715 9.75123 9.99643 9.57355 9.99612 9.3925V2H13.9961V9.3925C13.9958 9.57355 14.0451 9.75123 14.1386 9.90625L18.9161 17.875C17.4211 18.1675 15.2824 18.0425 12.4474 16.6075Z" fill="#66B2FF"/>
</svg>
