<svg width="24" height="25" viewBox="0 0 24 25" fill="none" xmlns="http://www.w3.org/2000/svg">
<path d="M12 0C8.81852 0.0036392 5.76839 1.26909 3.51874 3.51874C1.26909 5.76839 0.00363922 8.81852 2.24984e-08 12V24C-4.01407e-05 24.1894 0.0536938 24.3749 0.15495 24.5349C0.256207 24.6949 0.400822 24.8229 0.571973 24.904C0.743123 24.985 0.933773 25.0158 1.12174 24.9928C1.30971 24.9697 1.48726 24.8938 1.63375 24.7738L4.66625 22.2925L7.7 24.7738C7.87864 24.9199 8.10233 24.9997 8.33313 24.9997C8.56392 24.9997 8.78761 24.9199 8.96625 24.7738L12 22.2925L15.0338 24.7738C15.2124 24.9199 15.4361 24.9997 15.6669 24.9997C15.8977 24.9997 16.1214 24.9199 16.3 24.7738L19.3337 22.2925L22.3662 24.7738C22.5127 24.8938 22.6903 24.9697 22.8783 24.9928C23.0662 25.0158 23.2569 24.985 23.428 24.904C23.5992 24.8229 23.7438 24.6949 23.8451 24.5349C23.9463 24.3749 24 24.1894 24 24V12C23.9964 8.81852 22.7309 5.76839 20.4813 3.51874C18.2316 1.26909 15.1815 0.0036392 12 0ZM8.5 13C8.20333 13 7.91332 12.912 7.66665 12.7472C7.41997 12.5824 7.22771 12.3481 7.11418 12.074C7.00065 11.7999 6.97094 11.4983 7.02882 11.2074C7.0867 10.9164 7.22956 10.6491 7.43934 10.4393C7.64912 10.2296 7.91639 10.0867 8.20736 10.0288C8.49834 9.97094 8.79994 10.0006 9.07403 10.1142C9.34811 10.2277 9.58238 10.42 9.7472 10.6666C9.91203 10.9133 10 11.2033 10 11.5C10 11.8978 9.84196 12.2794 9.56066 12.5607C9.27936 12.842 8.89782 13 8.5 13ZM15.5 13C15.2033 13 14.9133 12.912 14.6666 12.7472C14.42 12.5824 14.2277 12.3481 14.1142 12.074C14.0007 11.7999 13.9709 11.4983 14.0288 11.2074C14.0867 10.9164 14.2296 10.6491 14.4393 10.4393C14.6491 10.2296 14.9164 10.0867 15.2074 10.0288C15.4983 9.97094 15.7999 10.0006 16.074 10.1142C16.3481 10.2277 16.5824 10.42 16.7472 10.6666C16.912 10.9133 17 11.2033 17 11.5C17 11.8978 16.842 12.2794 16.5607 12.5607C16.2794 12.842 15.8978 13 15.5 13Z" fill="#66B2FF"/>
</svg>
